<svg xmlns="http://www.w3.org/2000/svg" width="37.5" viewBox="0 0 37.5 37.5" height="37.5" version="1.0"><defs><clipPath id="a"><path d="M 6.109375 0 L 31.609375 0 L 31.609375 37.007812 L 6.109375 37.007812 Z M 6.109375 0"/></clipPath></defs><g clip-path="url(#a)"><path fill="#FFF" d="M 18.859375 19.261719 C 15.144531 19.261719 12.132812 16.277344 12.132812 12.59375 C 12.132812 8.910156 15.144531 5.921875 18.859375 5.921875 C 22.574219 5.921875 25.589844 8.910156 25.589844 12.59375 C 25.589844 16.277344 22.574219 19.261719 18.859375 19.261719 Z M 18.859375 0 C 11.820312 0 6.113281 5.65625 6.113281 12.632812 C 6.113281 15.894531 7.050781 19.085938 8.816406 21.835938 L 18.859375 37.5 L 28.90625 21.835938 C 30.667969 19.085938 31.605469 15.894531 31.605469 12.632812 C 31.605469 5.65625 25.898438 0 18.859375 0"/></g></svg>