<svg xmlns="http://www.w3.org/2000/svg" width="37.5" viewBox="0 0 37.5 37.5" height="37.5" version="1.0"><defs><clipPath id="a"><path d="M 14 0.679688 L 37.007812 0.679688 L 37.007812 36.679688 L 14 36.679688 Z M 14 0.679688"/></clipPath><clipPath id="b"><path d="M 0 0.679688 L 23 0.679688 L 23 36.679688 L 0 36.679688 Z M 0 0.679688"/></clipPath></defs><g clip-path="url(#a)"><path fill="#FFF" d="M 37.152344 18.546875 C 37.152344 18.414062 37.085938 18.347656 37.019531 18.214844 L 19.617188 0.878906 C 19.417969 0.679688 19.148438 0.679688 18.949219 0.878906 L 14.949219 4.863281 C 14.75 5.0625 14.75 5.328125 14.949219 5.527344 L 28.285156 18.679688 L 15.015625 31.898438 C 14.949219 31.964844 14.882812 32.097656 14.882812 32.230469 C 14.882812 32.363281 14.949219 32.429688 15.015625 32.5625 L 19.015625 36.546875 C 19.082031 36.613281 19.214844 36.679688 19.351562 36.679688 C 19.484375 36.679688 19.550781 36.613281 19.683594 36.546875 L 37.152344 19.144531 C 37.21875 19.078125 37.285156 18.945312 37.285156 18.8125 C 37.285156 18.746094 37.285156 18.746094 37.285156 18.746094 C 37.152344 18.679688 37.152344 18.613281 37.152344 18.546875 Z M 36.152344 18.679688 L 19.285156 35.550781 L 15.949219 32.230469 L 29.21875 19.011719 C 29.417969 18.8125 29.417969 18.546875 29.21875 18.347656 L 15.949219 5.128906 L 19.285156 1.808594 Z M 36.152344 18.679688"/></g><g clip-path="url(#b)"><path fill="#FFF" d="M 22.617188 18.679688 C 22.617188 18.546875 22.617188 18.347656 22.484375 18.28125 L 5.082031 0.878906 C 4.878906 0.679688 4.613281 0.679688 4.414062 0.878906 L 0.414062 4.863281 C 0.214844 5.0625 0.214844 5.328125 0.414062 5.527344 L 13.75 18.679688 L 0.480469 31.898438 C 0.414062 31.964844 0.347656 32.097656 0.347656 32.230469 C 0.347656 32.363281 0.414062 32.429688 0.480469 32.5625 L 4.480469 36.546875 C 4.546875 36.613281 4.679688 36.679688 4.8125 36.679688 C 4.945312 36.679688 5.015625 36.613281 5.148438 36.546875 L 22.617188 19.144531 C 22.617188 19.011719 22.683594 18.8125 22.617188 18.679688 Z M 21.617188 18.679688 L 4.746094 35.550781 L 1.414062 32.230469 L 14.683594 19.011719 C 14.882812 18.8125 14.882812 18.546875 14.683594 18.347656 L 1.414062 5.128906 L 4.746094 1.808594 Z M 21.617188 18.679688"/></g></svg>