<svg xmlns="http://www.w3.org/2000/svg" width="37.5" viewBox="0 0 37.5 37.5" height="37.5" version="1.0"><defs><clipPath id="a"><path d="M 0 0 L 37.007812 0 L 37.007812 37.007812 L 0 37.007812 Z M 0 0"/></clipPath></defs><g clip-path="url(#a)"><path fill="#FFF" d="M 36.914062 1.835938 L 36.839844 1.246094 C 36.796875 0.90625 36.53125 0.636719 36.195312 0.59375 C 21.644531 -1.289062 11.023438 1.363281 4.628906 8.484375 C 1.304688 12.171875 -0.234375 16.515625 0.164062 21.023438 C 0.503906 24.808594 2.199219 28.492188 4.964844 31.460938 L 0.21875 36.210938 C -0.0742188 36.503906 -0.0742188 36.976562 0.21875 37.265625 C 0.367188 37.417969 0.554688 37.484375 0.75 37.484375 C 0.945312 37.484375 1.132812 37.410156 1.28125 37.265625 L 6.03125 32.519531 C 8.992188 35.257812 12.652344 36.929688 16.417969 37.265625 C 16.882812 37.3125 17.355469 37.328125 17.8125 37.328125 C 21.816406 37.328125 25.648438 35.78125 28.957031 32.804688 C 32.339844 29.761719 34.65625 26.03125 36.039062 21.40625 C 37.621094 16.109375 37.914062 9.523438 36.914062 1.835938 Z M 34.597656 20.984375 C 33.300781 25.335938 31.125 28.84375 27.953125 31.695312 C 24.921875 34.417969 21.433594 35.835938 17.804688 35.835938 C 17.386719 35.835938 16.972656 35.820312 16.546875 35.78125 C 13.132812 35.476562 9.800781 33.953125 7.085938 31.46875 L 12.382812 26.175781 L 26.128906 26.175781 C 26.542969 26.175781 26.878906 25.835938 26.878906 25.425781 C 26.878906 25.011719 26.542969 24.675781 26.128906 24.675781 L 13.882812 24.675781 L 20.722656 17.835938 L 29.136719 17.835938 C 29.550781 17.835938 29.886719 17.496094 29.886719 17.085938 C 29.886719 16.671875 29.550781 16.335938 29.136719 16.335938 L 22.222656 16.335938 L 27.855469 10.703125 C 28.148438 10.410156 28.148438 9.9375 27.855469 9.644531 C 27.5625 9.351562 27.089844 9.351562 26.796875 9.644531 L 21.113281 15.328125 L 21.113281 8.316406 C 21.113281 7.90625 20.773438 7.566406 20.363281 7.566406 C 19.949219 7.566406 19.613281 7.90625 19.613281 8.316406 L 19.613281 16.828125 L 12.824219 23.609375 L 12.824219 11.355469 C 12.824219 10.941406 12.488281 10.605469 12.074219 10.605469 C 11.664062 10.605469 11.324219 10.941406 11.324219 11.355469 L 11.324219 25.101562 L 6.03125 30.398438 C 3.515625 27.675781 1.972656 24.324219 1.664062 20.886719 C 1.304688 16.800781 2.714844 12.855469 5.746094 9.480469 C 10.515625 4.175781 17.851562 1.507812 27.621094 1.507812 C 30.074219 1.507812 32.675781 1.671875 35.429688 2.011719 L 35.429688 2.023438 C 36.398438 9.503906 36.121094 15.886719 34.597656 20.984375 Z M 34.597656 20.984375"/></g></svg>