<?xml version="1.0" encoding="UTF-8"?>
<svg xmlns="http://www.w3.org/2000/svg" xmlns:xlink="http://www.w3.org/1999/xlink" width="100px" height="100px" viewBox="0 0 100 100" version="1.1">
<defs>
<clipPath id="clip1">
  <path d="M 38.003906 30.898438 L 62.003906 30.898438 L 62.003906 61.691406 L 38.003906 61.691406 Z M 38.003906 30.898438 "/>
</clipPath>
</defs>
<g id="surface1">
<g clip-path="url(#clip1)" clip-rule="nonzero">
<path style=" stroke:none;fill-rule:nonzero;fill:rgb(40%,56.862745%,23.529412%);fill-opacity:1;" d="M 38.3125 41.746094 L 44.050781 38.433594 L 49.789062 41.746094 L 49.789062 51.160156 L 44.207031 54.382812 L 44.207031 49.785156 L 47.878906 47.660156 C 47.949219 47.609375 47.964844 47.507812 47.914062 47.441406 C 47.871094 47.378906 47.789062 47.359375 47.722656 47.386719 L 44.207031 49.417969 L 44.207031 42.28125 C 44.207031 42.191406 44.136719 42.121094 44.050781 42.121094 C 43.964844 42.121094 43.894531 42.191406 43.894531 42.28125 L 43.894531 46.167969 L 40.378906 44.140625 C 40.308594 44.089844 40.210938 44.105469 40.160156 44.175781 C 40.105469 44.246094 40.121094 44.34375 40.191406 44.394531 C 40.199219 44.398438 40.210938 44.40625 40.222656 44.410156 L 43.894531 46.535156 L 43.894531 54.382812 L 38.3125 51.160156 Z M 44.394531 35.59375 L 51.933594 31.238281 L 59.480469 35.59375 L 59.480469 47.949219 L 52.089844 52.214844 L 52.089844 46.691406 L 56.917969 43.90625 C 56.996094 43.871094 57.035156 43.777344 56.996094 43.699219 C 56.960938 43.621094 56.867188 43.585938 56.789062 43.621094 C 56.78125 43.625 56.769531 43.632812 56.761719 43.636719 L 52.097656 46.332031 L 52.097656 39.660156 L 54.496094 38.269531 C 54.566406 38.21875 54.582031 38.121094 54.53125 38.050781 C 54.488281 37.992188 54.40625 37.96875 54.339844 38 L 52.097656 39.292969 L 52.097656 35.417969 C 52.097656 35.332031 52.027344 35.261719 51.941406 35.261719 C 51.855469 35.261719 51.785156 35.332031 51.785156 35.417969 L 51.785156 52.214844 L 50.101562 51.242188 L 50.101562 41.652344 C 50.101562 41.59375 50.074219 41.542969 50.027344 41.511719 L 44.402344 38.261719 L 44.402344 35.59375 Z M 55.476562 59.171875 L 58.199219 59.171875 L 59.472656 61.378906 L 54.207031 61.378906 Z M 38.082031 51.386719 L 43.894531 54.746094 L 43.894531 61.378906 L 40.839844 61.378906 C 40.753906 61.378906 40.683594 61.449219 40.683594 61.535156 C 40.683594 61.621094 40.753906 61.691406 40.839844 61.691406 L 46.550781 61.691406 C 46.636719 61.691406 46.707031 61.621094 46.707031 61.535156 C 46.707031 61.449219 46.636719 61.378906 46.550781 61.378906 L 44.207031 61.378906 L 44.207031 54.742188 L 49.871094 51.46875 L 51.777344 52.578125 L 51.777344 61.378906 L 48.683594 61.378906 C 48.597656 61.378906 48.527344 61.449219 48.527344 61.535156 C 48.527344 61.621094 48.597656 61.691406 48.683594 61.691406 L 61.847656 61.691406 C 61.933594 61.691406 62.003906 61.621094 62.003906 61.535156 C 62.003906 61.449219 61.933594 61.378906 61.847656 61.378906 L 59.839844 61.378906 L 58.433594 58.941406 C 58.402344 58.890625 58.351562 58.863281 58.292969 58.863281 L 55.386719 58.863281 C 55.332031 58.863281 55.277344 58.894531 55.25 58.945312 L 53.84375 61.378906 L 52.089844 61.378906 L 52.089844 52.578125 L 59.714844 48.175781 C 59.761719 48.148438 59.792969 48.09375 59.792969 48.035156 L 59.792969 35.503906 C 59.796875 35.449219 59.769531 35.394531 59.71875 35.367188 L 52.015625 30.917969 C 51.96875 30.890625 51.910156 30.890625 51.859375 30.917969 L 44.164062 35.367188 C 44.113281 35.394531 44.085938 35.449219 44.085938 35.503906 L 44.085938 38.09375 C 44.050781 38.085938 44.007812 38.09375 43.976562 38.113281 L 38.082031 41.519531 C 38.03125 41.550781 38.003906 41.601562 38.003906 41.65625 L 38.003906 51.246094 C 38.003906 51.304688 38.03125 51.355469 38.082031 51.386719 "/>
</g>
<path style=" stroke:none;fill-rule:nonzero;fill:rgb(0%,0%,0%);fill-opacity:1;" d="M 10.96875 74.195312 C 10.378906 74.195312 9.84375 74.0625 9.367188 73.804688 C 8.894531 73.542969 8.519531 73.179688 8.246094 72.714844 C 7.976562 72.25 7.84375 71.730469 7.84375 71.15625 C 7.84375 70.582031 7.976562 70.0625 8.246094 69.601562 C 8.519531 69.140625 8.894531 68.777344 9.371094 68.515625 C 9.851562 68.25 10.386719 68.121094 10.976562 68.121094 C 11.421875 68.121094 11.832031 68.195312 12.207031 68.34375 C 12.582031 68.492188 12.898438 68.707031 13.160156 68.992188 L 12.761719 69.390625 C 12.292969 68.917969 11.703125 68.683594 10.992188 68.683594 C 10.519531 68.683594 10.089844 68.789062 9.707031 69.007812 C 9.320312 69.222656 9.015625 69.519531 8.796875 69.894531 C 8.578125 70.269531 8.46875 70.691406 8.46875 71.15625 C 8.46875 71.625 8.578125 72.042969 8.796875 72.417969 C 9.015625 72.792969 9.320312 73.089844 9.707031 73.308594 C 10.089844 73.523438 10.519531 73.632812 10.992188 73.632812 C 11.710938 73.632812 12.300781 73.394531 12.761719 72.914062 L 13.160156 73.316406 C 12.898438 73.601562 12.578125 73.820312 12.203125 73.96875 C 11.824219 74.121094 11.414062 74.195312 10.96875 74.195312 Z M 10.96875 74.195312 "/>
<path style=" stroke:none;fill-rule:nonzero;fill:rgb(0%,0%,0%);fill-opacity:1;" d="M 15.359375 68.167969 L 15.992188 68.167969 L 15.992188 73.597656 L 19.339844 73.597656 L 19.339844 74.144531 L 15.359375 74.144531 Z M 15.359375 68.167969 "/>
<path style=" stroke:none;fill-rule:nonzero;fill:rgb(0%,0%,0%);fill-opacity:1;" d="M 21.238281 68.167969 L 21.871094 68.167969 L 21.871094 74.144531 L 21.238281 74.144531 Z M 21.238281 68.167969 "/>
<path style=" stroke:none;fill-rule:nonzero;fill:rgb(0%,0%,0%);fill-opacity:1;" d="M 29.664062 68.167969 L 29.664062 74.144531 L 29.144531 74.144531 L 25.300781 69.296875 L 25.300781 74.144531 L 24.667969 74.144531 L 24.667969 68.167969 L 25.1875 68.167969 L 29.039062 73.019531 L 29.039062 68.167969 Z M 29.664062 68.167969 "/>
<path style=" stroke:none;fill-rule:nonzero;fill:rgb(0%,0%,0%);fill-opacity:1;" d="M 32.457031 68.167969 L 33.089844 68.167969 L 33.089844 74.144531 L 32.457031 74.144531 Z M 32.457031 68.167969 "/>
<path style=" stroke:none;fill-rule:nonzero;fill:rgb(0%,0%,0%);fill-opacity:1;" d="M 38.484375 74.195312 C 37.890625 74.195312 37.359375 74.0625 36.882812 73.804688 C 36.40625 73.542969 36.035156 73.179688 35.761719 72.714844 C 35.492188 72.25 35.359375 71.730469 35.359375 71.15625 C 35.359375 70.582031 35.492188 70.0625 35.761719 69.601562 C 36.035156 69.140625 36.410156 68.777344 36.886719 68.515625 C 37.363281 68.25 37.898438 68.121094 38.492188 68.121094 C 38.933594 68.121094 39.34375 68.195312 39.71875 68.34375 C 40.09375 68.492188 40.414062 68.707031 40.675781 68.992188 L 40.273438 69.390625 C 39.808594 68.917969 39.21875 68.683594 38.507812 68.683594 C 38.035156 68.683594 37.605469 68.789062 37.21875 69.007812 C 36.832031 69.222656 36.53125 69.519531 36.3125 69.894531 C 36.09375 70.269531 35.984375 70.691406 35.984375 71.15625 C 35.984375 71.625 36.09375 72.042969 36.3125 72.417969 C 36.53125 72.792969 36.832031 73.089844 37.21875 73.308594 C 37.605469 73.523438 38.035156 73.632812 38.507812 73.632812 C 39.222656 73.632812 39.8125 73.394531 40.273438 72.914062 L 40.675781 73.316406 C 40.414062 73.601562 40.09375 73.820312 39.714844 73.96875 C 39.339844 74.121094 38.925781 74.195312 38.484375 74.195312 Z M 38.484375 74.195312 "/>
<path style=" stroke:none;fill-rule:nonzero;fill:rgb(0%,0%,0%);fill-opacity:1;" d="M 46.625 72.546875 L 43.296875 72.546875 L 42.578125 74.144531 L 41.921875 74.144531 L 44.648438 68.167969 L 45.273438 68.167969 L 48.003906 74.144531 L 47.339844 74.144531 Z M 46.390625 72.035156 L 44.957031 68.828125 L 43.523438 72.035156 Z M 46.390625 72.035156 "/>
<path style=" stroke:none;fill-rule:nonzero;fill:rgb(0%,0%,0%);fill-opacity:1;" d="M 57.140625 71.15625 L 57.75 71.15625 L 57.75 73.4375 C 57.46875 73.679688 57.136719 73.867188 56.757812 74 C 56.378906 74.128906 55.976562 74.195312 55.554688 74.195312 C 54.957031 74.195312 54.417969 74.0625 53.941406 73.804688 C 53.464844 73.542969 53.085938 73.179688 52.8125 72.714844 C 52.539062 72.25 52.402344 71.730469 52.402344 71.15625 C 52.402344 70.582031 52.539062 70.0625 52.8125 69.601562 C 53.085938 69.140625 53.464844 68.777344 53.941406 68.515625 C 54.417969 68.25 54.960938 68.121094 55.5625 68.121094 C 56.019531 68.121094 56.433594 68.195312 56.816406 68.339844 C 57.199219 68.484375 57.523438 68.699219 57.785156 68.980469 L 57.390625 69.382812 C 56.917969 68.914062 56.316406 68.683594 55.585938 68.683594 C 55.105469 68.683594 54.667969 68.789062 54.277344 69.003906 C 53.890625 69.21875 53.585938 69.511719 53.363281 69.890625 C 53.140625 70.269531 53.027344 70.691406 53.027344 71.15625 C 53.027344 71.625 53.140625 72.042969 53.363281 72.417969 C 53.585938 72.792969 53.886719 73.089844 54.273438 73.308594 C 54.660156 73.523438 55.097656 73.632812 55.578125 73.632812 C 56.195312 73.632812 56.714844 73.480469 57.140625 73.171875 Z M 57.140625 71.15625 "/>
<path style=" stroke:none;fill-rule:nonzero;fill:rgb(0%,0%,0%);fill-opacity:1;" d="M 64.132812 72.546875 L 60.800781 72.546875 L 60.085938 74.144531 L 59.425781 74.144531 L 62.15625 68.167969 L 62.78125 68.167969 L 65.511719 74.144531 L 64.847656 74.144531 Z M 63.898438 72.035156 L 62.464844 68.828125 L 61.03125 72.035156 Z M 63.898438 72.035156 "/>
<path style=" stroke:none;fill-rule:nonzero;fill:rgb(0%,0%,0%);fill-opacity:1;" d="M 69 74.195312 C 68.554688 74.195312 68.128906 74.125 67.722656 73.980469 C 67.316406 73.839844 67.003906 73.652344 66.78125 73.417969 L 67.03125 72.933594 C 67.242188 73.148438 67.53125 73.324219 67.890625 73.457031 C 68.25 73.589844 68.621094 73.65625 69 73.65625 C 69.535156 73.65625 69.933594 73.558594 70.203125 73.367188 C 70.46875 73.167969 70.605469 72.914062 70.605469 72.597656 C 70.605469 72.359375 70.53125 72.167969 70.382812 72.027344 C 70.238281 71.886719 70.0625 71.777344 69.851562 71.703125 C 69.644531 71.625 69.351562 71.539062 68.976562 71.449219 C 68.527344 71.335938 68.164062 71.226562 67.898438 71.121094 C 67.628906 71.015625 67.402344 70.851562 67.210938 70.636719 C 67.019531 70.417969 66.925781 70.125 66.925781 69.757812 C 66.925781 69.457031 67.003906 69.183594 67.164062 68.9375 C 67.324219 68.6875 67.570312 68.492188 67.898438 68.34375 C 68.226562 68.195312 68.636719 68.121094 69.125 68.121094 C 69.46875 68.121094 69.800781 68.167969 70.128906 68.261719 C 70.457031 68.355469 70.742188 68.484375 70.980469 68.648438 L 70.769531 69.152344 C 70.519531 68.988281 70.25 68.867188 69.964844 68.78125 C 69.679688 68.699219 69.402344 68.65625 69.125 68.65625 C 68.601562 68.65625 68.210938 68.757812 67.945312 68.960938 C 67.683594 69.164062 67.550781 69.421875 67.550781 69.742188 C 67.550781 69.980469 67.625 70.171875 67.769531 70.320312 C 67.910156 70.464844 68.09375 70.574219 68.3125 70.652344 C 68.53125 70.726562 68.828125 70.8125 69.195312 70.902344 C 69.636719 71.011719 69.988281 71.117188 70.257812 71.222656 C 70.527344 71.328125 70.757812 71.484375 70.941406 71.699219 C 71.132812 71.914062 71.226562 72.203125 71.226562 72.566406 C 71.226562 72.867188 71.144531 73.144531 70.984375 73.390625 C 70.824219 73.636719 70.574219 73.835938 70.238281 73.976562 C 69.902344 74.121094 69.488281 74.195312 69 74.195312 Z M 69 74.195312 "/>
<path style=" stroke:none;fill-rule:nonzero;fill:rgb(0%,0%,0%);fill-opacity:1;" d="M 75.6875 68.167969 C 76.449219 68.167969 77.046875 68.351562 77.480469 68.71875 C 77.914062 69.085938 78.128906 69.585938 78.128906 70.21875 C 78.128906 70.855469 77.914062 71.355469 77.480469 71.714844 C 77.046875 72.078125 76.449219 72.257812 75.6875 72.257812 L 74.085938 72.257812 L 74.085938 74.144531 L 73.453125 74.144531 L 73.453125 68.167969 Z M 75.671875 71.703125 C 76.265625 71.703125 76.714844 71.574219 77.027344 71.316406 C 77.339844 71.058594 77.496094 70.691406 77.496094 70.21875 C 77.496094 69.734375 77.339844 69.367188 77.027344 69.105469 C 76.714844 68.847656 76.265625 68.714844 75.671875 68.714844 L 74.085938 68.714844 L 74.085938 71.703125 Z M 75.671875 71.703125 "/>
<path style=" stroke:none;fill-rule:nonzero;fill:rgb(0%,0%,0%);fill-opacity:1;" d="M 84.179688 72.546875 L 80.851562 72.546875 L 80.132812 74.144531 L 79.476562 74.144531 L 82.207031 68.167969 L 82.832031 68.167969 L 85.558594 74.144531 L 84.898438 74.144531 Z M 83.945312 72.035156 L 82.511719 68.828125 L 81.082031 72.035156 Z M 83.945312 72.035156 "/>
<path style=" stroke:none;fill-rule:nonzero;fill:rgb(0%,0%,0%);fill-opacity:1;" d="M 91.480469 74.144531 L 90.117188 72.222656 C 89.960938 72.242188 89.800781 72.25 89.636719 72.25 L 88.035156 72.25 L 88.035156 74.144531 L 87.402344 74.144531 L 87.402344 68.167969 L 89.636719 68.167969 C 90.398438 68.167969 90.996094 68.351562 91.429688 68.71875 C 91.863281 69.085938 92.078125 69.585938 92.078125 70.21875 C 92.078125 70.6875 91.960938 71.082031 91.726562 71.402344 C 91.488281 71.722656 91.152344 71.953125 90.714844 72.09375 L 92.171875 74.144531 Z M 89.621094 71.710938 C 90.214844 71.710938 90.664062 71.582031 90.976562 71.320312 C 91.289062 71.058594 91.445312 70.691406 91.445312 70.21875 C 91.445312 69.734375 91.289062 69.367188 90.976562 69.105469 C 90.664062 68.847656 90.214844 68.714844 89.621094 68.714844 L 88.035156 68.714844 L 88.035156 71.710938 Z M 89.621094 71.710938 "/>
<path style=" stroke:none;fill-rule:nonzero;fill:rgb(0%,0%,0%);fill-opacity:1;" d="M 34.660156 27.117188 L 34.210938 27.597656 L 34.085938 27.480469 L 35.117188 26.378906 L 35.242188 26.496094 L 34.792969 26.976562 L 36.027344 28.136719 L 35.894531 28.28125 Z M 34.660156 27.117188 "/>
<path style=" stroke:none;fill-rule:nonzero;fill:rgb(0%,0%,0%);fill-opacity:1;" d="M 37.984375 26.328125 L 37.269531 26.148438 C 37.234375 26.183594 37.199219 26.21875 37.164062 26.253906 L 36.777344 26.578125 L 37.160156 27.027344 L 37.015625 27.15625 L 35.808594 25.734375 L 36.339844 25.28125 C 36.519531 25.128906 36.695312 25.050781 36.875 25.046875 C 37.050781 25.046875 37.203125 25.121094 37.332031 25.273438 C 37.425781 25.382812 37.476562 25.503906 37.484375 25.628906 C 37.496094 25.753906 37.460938 25.875 37.382812 26 L 38.148438 26.191406 Z M 37.046875 26.128906 C 37.191406 26.007812 37.269531 25.886719 37.289062 25.761719 C 37.3125 25.632812 37.273438 25.515625 37.175781 25.402344 C 37.078125 25.285156 36.96875 25.230469 36.839844 25.230469 C 36.714844 25.234375 36.582031 25.296875 36.441406 25.414062 L 36.0625 25.734375 L 36.667969 26.449219 Z M 37.046875 26.128906 "/>
<path style=" stroke:none;fill-rule:nonzero;fill:rgb(0%,0%,0%);fill-opacity:1;" d="M 39.464844 25.285156 C 39.261719 25.417969 39.066406 25.464844 38.878906 25.425781 C 38.6875 25.382812 38.523438 25.25 38.378906 25.027344 L 37.796875 24.132812 L 37.957031 24.023438 L 38.535156 24.914062 C 38.65625 25.097656 38.785156 25.207031 38.925781 25.242188 C 39.066406 25.277344 39.214844 25.242188 39.371094 25.140625 C 39.527344 25.039062 39.617188 24.914062 39.640625 24.773438 C 39.664062 24.632812 39.613281 24.472656 39.496094 24.289062 L 38.917969 23.398438 L 39.078125 23.292969 L 39.660156 24.191406 C 39.804688 24.414062 39.859375 24.617188 39.820312 24.808594 C 39.785156 24.996094 39.667969 25.15625 39.464844 25.285156 Z M 39.464844 25.285156 "/>
<path style=" stroke:none;fill-rule:nonzero;fill:rgb(0%,0%,0%);fill-opacity:1;" d="M 41.445312 24.15625 C 41.328125 24.214844 41.199219 24.253906 41.0625 24.273438 C 40.929688 24.289062 40.816406 24.28125 40.722656 24.246094 L 40.722656 24.070312 C 40.808594 24.101562 40.914062 24.109375 41.035156 24.097656 C 41.15625 24.085938 41.269531 24.054688 41.371094 24.003906 C 41.523438 23.929688 41.625 23.847656 41.671875 23.75 C 41.71875 23.65625 41.71875 23.566406 41.675781 23.480469 C 41.640625 23.414062 41.59375 23.371094 41.535156 23.351562 C 41.472656 23.332031 41.40625 23.324219 41.339844 23.335938 C 41.269531 23.339844 41.175781 23.355469 41.0625 23.382812 C 40.917969 23.414062 40.800781 23.433594 40.714844 23.441406 C 40.625 23.449219 40.539062 23.4375 40.453125 23.40625 C 40.371094 23.371094 40.304688 23.304688 40.25 23.195312 C 40.210938 23.113281 40.195312 23.027344 40.203125 22.933594 C 40.214844 22.84375 40.253906 22.753906 40.324219 22.667969 C 40.398438 22.578125 40.503906 22.5 40.636719 22.429688 C 40.730469 22.382812 40.832031 22.351562 40.9375 22.332031 C 41.042969 22.3125 41.140625 22.308594 41.234375 22.320312 L 41.242188 22.492188 C 41.152344 22.480469 41.058594 22.484375 40.96875 22.5 C 40.875 22.515625 40.789062 22.542969 40.714844 22.582031 C 40.570312 22.65625 40.476562 22.742188 40.429688 22.835938 C 40.382812 22.925781 40.382812 23.019531 40.425781 23.109375 C 40.460938 23.175781 40.503906 23.21875 40.5625 23.238281 C 40.621094 23.257812 40.6875 23.261719 40.757812 23.253906 C 40.835938 23.246094 40.929688 23.226562 41.046875 23.199219 C 41.183594 23.171875 41.292969 23.152344 41.382812 23.148438 C 41.476562 23.136719 41.5625 23.152344 41.648438 23.183594 C 41.730469 23.21875 41.796875 23.285156 41.847656 23.382812 C 41.890625 23.472656 41.90625 23.558594 41.890625 23.652344 C 41.882812 23.742188 41.839844 23.828125 41.765625 23.917969 C 41.695312 24.007812 41.589844 24.085938 41.445312 24.15625 Z M 41.445312 24.15625 "/>
<path style=" stroke:none;fill-rule:nonzero;fill:rgb(0%,0%,0%);fill-opacity:1;" d="M 42.605469 21.78125 L 41.992188 22.011719 L 41.929688 21.847656 L 43.34375 21.320312 L 43.40625 21.480469 L 42.789062 21.714844 L 43.382812 23.300781 L 43.199219 23.367188 Z M 42.605469 21.78125 "/>
<path style=" stroke:none;fill-rule:nonzero;fill:rgb(0%,0%,0%);fill-opacity:1;" d="M 45.46875 20.746094 L 45.660156 20.707031 L 46.054688 22.53125 L 45.863281 22.570312 Z M 45.46875 20.746094 "/>
<path style=" stroke:none;fill-rule:nonzero;fill:rgb(0%,0%,0%);fill-opacity:1;" d="M 48.417969 20.292969 L 48.628906 22.148438 L 48.46875 22.164062 L 47.101562 20.792969 L 47.277344 22.300781 L 47.082031 22.324219 L 46.871094 20.472656 L 47.03125 20.449219 L 48.394531 21.820312 L 48.226562 20.3125 Z M 48.417969 20.292969 "/>
<path style=" stroke:none;fill-rule:nonzero;fill:rgb(0%,0%,0%);fill-opacity:1;" d="M 51.296875 20.449219 L 50.644531 20.40625 L 50.652344 20.238281 L 52.15625 20.332031 L 52.148438 20.503906 L 51.492188 20.460938 L 51.386719 22.152344 L 51.191406 22.140625 Z M 51.296875 20.449219 "/>
<path style=" stroke:none;fill-rule:nonzero;fill:rgb(0%,0%,0%);fill-opacity:1;" d="M 54.632812 20.722656 L 54.300781 22.558594 L 54.113281 22.527344 L 54.265625 21.675781 L 53.113281 21.464844 L 52.957031 22.316406 L 52.765625 22.28125 L 53.101562 20.445312 L 53.292969 20.476562 L 53.140625 21.296875 L 54.296875 21.511719 L 54.445312 20.691406 Z M 54.632812 20.722656 "/>
<path style=" stroke:none;fill-rule:nonzero;fill:rgb(0%,0%,0%);fill-opacity:1;" d="M 56.597656 23.046875 L 56.546875 23.207031 L 55.289062 22.816406 L 55.847656 21.03125 L 57.066406 21.414062 L 57.011719 21.578125 L 55.980469 21.257812 L 55.785156 21.886719 L 56.707031 22.175781 L 56.65625 22.335938 L 55.734375 22.050781 L 55.527344 22.710938 Z M 56.597656 23.046875 "/>
<path style=" stroke:none;fill-rule:nonzero;fill:rgb(0%,0%,0%);fill-opacity:1;" d="M 59.925781 23.6875 C 60.019531 23.769531 60.082031 23.859375 60.101562 23.957031 C 60.125 24.0625 60.109375 24.167969 60.054688 24.277344 C 59.976562 24.417969 59.867188 24.5 59.722656 24.519531 C 59.578125 24.542969 59.40625 24.5 59.199219 24.390625 L 58.441406 23.996094 L 59.308594 22.34375 L 60.019531 22.714844 C 60.203125 22.8125 60.328125 22.921875 60.390625 23.050781 C 60.453125 23.179688 60.453125 23.3125 60.382812 23.445312 C 60.332031 23.539062 60.265625 23.605469 60.1875 23.644531 C 60.109375 23.6875 60.019531 23.699219 59.925781 23.6875 Z M 59.402344 22.578125 L 59.085938 23.179688 L 59.617188 23.453125 C 59.75 23.523438 59.867188 23.554688 59.964844 23.542969 C 60.066406 23.527344 60.140625 23.472656 60.191406 23.371094 C 60.242188 23.277344 60.242188 23.1875 60.199219 23.097656 C 60.15625 23.003906 60.066406 22.925781 59.933594 22.855469 Z M 59.269531 24.246094 C 59.421875 24.324219 59.546875 24.355469 59.644531 24.347656 C 59.746094 24.339844 59.828125 24.28125 59.886719 24.171875 C 59.992188 23.96875 59.894531 23.789062 59.59375 23.628906 L 59.011719 23.324219 L 58.6875 23.941406 Z M 59.269531 24.246094 "/>
<path style=" stroke:none;fill-rule:nonzero;fill:rgb(0%,0%,0%);fill-opacity:1;" d="M 61.734375 25.789062 L 61.640625 25.929688 L 60.554688 25.179688 L 61.609375 23.640625 L 62.664062 24.367188 L 62.566406 24.507812 L 61.671875 23.894531 L 61.296875 24.441406 L 62.09375 24.988281 L 62 25.125 L 61.203125 24.578125 L 60.8125 25.148438 Z M 61.734375 25.789062 "/>
<path style=" stroke:none;fill-rule:nonzero;fill:rgb(0%,0%,0%);fill-opacity:1;" d="M 62.710938 26.828125 C 62.609375 26.738281 62.523438 26.632812 62.457031 26.519531 C 62.390625 26.402344 62.355469 26.292969 62.347656 26.191406 L 62.507812 26.125 C 62.515625 26.222656 62.546875 26.320312 62.605469 26.425781 C 62.664062 26.535156 62.738281 26.625 62.824219 26.703125 C 62.953125 26.8125 63.070312 26.871094 63.171875 26.875 C 63.277344 26.882812 63.359375 26.851562 63.421875 26.777344 C 63.46875 26.71875 63.492188 26.660156 63.484375 26.597656 C 63.480469 26.535156 63.457031 26.472656 63.421875 26.414062 C 63.390625 26.351562 63.339844 26.273438 63.273438 26.171875 C 63.1875 26.054688 63.125 25.953125 63.082031 25.875 C 63.042969 25.796875 63.019531 25.710938 63.019531 25.621094 C 63.019531 25.535156 63.058594 25.445312 63.132812 25.355469 C 63.191406 25.285156 63.265625 25.234375 63.355469 25.210938 C 63.445312 25.183594 63.542969 25.183594 63.648438 25.21875 C 63.757812 25.25 63.871094 25.316406 63.984375 25.417969 C 64.066406 25.484375 64.136719 25.5625 64.195312 25.65625 C 64.253906 25.746094 64.296875 25.832031 64.316406 25.917969 L 64.160156 25.996094 C 64.136719 25.910156 64.101562 25.824219 64.046875 25.746094 C 64 25.667969 63.941406 25.597656 63.878906 25.542969 C 63.753906 25.433594 63.636719 25.378906 63.535156 25.375 C 63.433594 25.371094 63.347656 25.40625 63.285156 25.480469 C 63.234375 25.539062 63.210938 25.597656 63.214844 25.660156 C 63.21875 25.722656 63.242188 25.785156 63.277344 25.847656 C 63.3125 25.910156 63.367188 25.992188 63.4375 26.089844 C 63.515625 26.203125 63.578125 26.300781 63.621094 26.378906 C 63.660156 26.460938 63.683594 26.546875 63.6875 26.632812 C 63.6875 26.726562 63.652344 26.816406 63.578125 26.902344 C 63.515625 26.96875 63.441406 27.019531 63.351562 27.042969 C 63.261719 27.066406 63.164062 27.0625 63.050781 27.03125 C 62.945312 26.996094 62.828125 26.929688 62.710938 26.828125 Z M 62.710938 26.828125 "/>
<path style=" stroke:none;fill-rule:nonzero;fill:rgb(0%,0%,0%);fill-opacity:1;" d="M 65.347656 26.976562 L 64.898438 26.496094 L 65.023438 26.382812 L 66.054688 27.480469 L 65.929688 27.597656 L 65.480469 27.117188 L 64.246094 28.28125 L 64.113281 28.140625 Z M 65.347656 26.976562 "/>
</g>
</svg>
