<svg xmlns="http://www.w3.org/2000/svg" width="37.5" viewBox="0 0 37.5 37.5" height="37.5" version="1.0"><defs><clipPath id="a"><path d="M 0 4 L 37.007812 4 L 37.007812 35.25 L 0 35.25 Z M 0 4"/></clipPath></defs><g clip-path="url(#a)"><path fill="#FFF" d="M 6.382812 35.070312 C 6.0625 35.070312 5.773438 34.878906 5.648438 34.574219 C 5.523438 34.273438 5.589844 33.933594 5.820312 33.703125 C 6.703125 32.8125 8.296875 30.628906 9.363281 28.277344 C 4.058594 25.945312 0.796875 21.839844 0.796875 17.425781 C 0.796875 10.347656 9.03125 4.589844 19.148438 4.589844 C 29.265625 4.589844 37.5 10.347656 37.5 17.425781 C 37.5 24.5 29.265625 30.257812 19.148438 30.257812 C 18.492188 30.257812 17.851562 30.226562 17.214844 30.175781 C 14.210938 33.425781 10.570312 35.070312 6.382812 35.070312 Z M 19.152344 6.195312 C 9.910156 6.195312 2.394531 11.238281 2.394531 17.425781 C 2.394531 21.371094 5.582031 25.078125 10.707031 27.101562 C 10.902344 27.183594 11.0625 27.335938 11.144531 27.535156 C 11.230469 27.730469 11.234375 27.957031 11.152344 28.152344 C 10.410156 30.019531 9.257812 31.933594 8.203125 33.34375 C 11.28125 32.921875 13.996094 31.402344 16.292969 28.8125 C 16.457031 28.625 16.703125 28.523438 16.957031 28.546875 C 17.675781 28.609375 18.40625 28.65625 19.148438 28.65625 C 28.386719 28.65625 35.902344 23.617188 35.902344 17.425781 C 35.902344 11.234375 28.390625 6.195312 19.152344 6.195312 Z M 19.152344 6.195312"/></g></svg>