<svg xmlns="http://www.w3.org/2000/svg" width="37.5" viewBox="0 0 37.5 37.5" height="37.5" version="1.0"><defs><clipPath id="a"><path d="M 0 3.75 L 37.007812 3.75 L 37.007812 33 L 0 33 Z M 0 3.75"/></clipPath></defs><g clip-path="url(#a)"><path fill="#FFF" d="M 24.855469 13.222656 L 34.441406 13.222656 L 19.574219 30.296875 Z M 13.929688 13.222656 L 23.648438 13.222656 L 18.792969 28.925781 Z M 3.136719 13.222656 L 12.726562 13.222656 L 18.007812 30.296875 Z M 18.792969 5.984375 L 23.914062 11.671875 L 13.671875 11.671875 Z M 30.03125 5.878906 L 35.257812 11.671875 L 25.953125 11.671875 Z M 7.554688 5.878906 L 11.632812 11.671875 L 2.324219 11.671875 Z M 19.53125 5.304688 L 29.210938 5.304688 L 24.960938 11.339844 Z M 8.371094 5.304688 L 18.054688 5.304688 L 12.621094 11.339844 Z M 8.070312 3.757812 C 7.640625 3.757812 7.230469 3.941406 6.9375 4.261719 L 0.570312 11.316406 C 0.0351562 11.910156 0.0351562 12.8125 0.570312 13.40625 L 17.65625 32.28125 C 18.230469 32.914062 19.203125 32.957031 19.828125 32.378906 C 19.859375 32.347656 19.894531 32.316406 19.921875 32.28125 L 37.011719 13.40625 C 37.546875 12.8125 37.546875 11.910156 37.011719 11.316406 L 30.644531 4.261719 C 30.351562 3.941406 29.941406 3.757812 29.507812 3.757812 L 8.070312 3.757812"/></g></svg>