<svg xmlns="http://www.w3.org/2000/svg" width="37.5" viewBox="0 0 37.5 37.5" height="37.5" version="1.0"><defs><clipPath id="a"><path d="M 0 0 L 37.007812 0 L 37.007812 37.007812 L 0 37.007812 Z M 0 0"/></clipPath></defs><g clip-path="url(#a)"><path fill="#FFF" d="M 18.734375 0.015625 C 8.402344 0.015625 0 8.414062 0 18.75 C 0 21.921875 0.785156 25.035156 2.328125 27.785156 L 0.726562 33.648438 C 0.453125 34.585938 0.726562 35.550781 1.421875 36.246094 C 2.113281 36.941406 3.082031 37.214844 4.019531 36.972656 L 10.121094 35.371094 C 12.78125 36.757812 15.742188 37.484375 18.765625 37.484375 C 29.097656 37.484375 37.5 29.085938 37.5 18.75 C 37.5 13.734375 35.566406 9.050781 32.03125 5.515625 C 28.464844 1.980469 23.75 0.015625 18.734375 0.015625 Z M 18.734375 1.828125 C 23.265625 1.828125 27.527344 3.582031 30.699219 6.785156 C 33.902344 9.988281 35.6875 14.246094 35.65625 18.75 C 35.65625 28.085938 28.070312 35.671875 18.734375 35.671875 C 15.925781 35.671875 13.113281 34.945312 10.636719 33.617188 C 10.515625 33.554688 10.363281 33.496094 10.214844 33.496094 C 10.125 33.496094 10.0625 33.496094 9.972656 33.527344 L 3.535156 35.21875 C 3.082031 35.339844 2.78125 35.097656 2.660156 34.976562 C 2.539062 34.855469 2.296875 34.554688 2.417969 34.101562 L 4.109375 27.875 C 4.167969 27.632812 4.140625 27.390625 4.019531 27.179688 C 2.570312 24.640625 1.8125 21.710938 1.8125 18.75 C 1.8125 9.414062 9.398438 1.828125 18.734375 1.828125 Z M 18.734375 4.546875 C 10.910156 4.546875 4.53125 10.894531 4.53125 18.75 C 4.53125 21.257812 5.199219 23.707031 6.4375 25.851562 C 6.921875 26.695312 7.039062 27.695312 6.800781 28.632812 L 5.921875 31.804688 L 9.308594 30.929688 C 9.609375 30.835938 9.910156 30.808594 10.214844 30.808594 C 10.816406 30.808594 11.421875 30.957031 11.9375 31.261719 C 14.019531 32.347656 16.347656 32.953125 18.734375 32.953125 C 26.5625 32.953125 32.9375 26.578125 32.9375 18.75 C 32.9375 14.941406 31.457031 11.375 28.765625 8.6875 C 26.109375 6.027344 22.542969 4.546875 18.734375 4.546875 Z M 12.417969 10.5 L 13.265625 10.5 C 13.597656 10.5 13.929688 10.53125 14.261719 11.253906 C 14.65625 12.132812 15.53125 14.339844 15.621094 14.550781 C 15.742188 14.761719 15.804688 15.03125 15.652344 15.335938 C 15.5 15.636719 15.441406 15.820312 15.199219 16.089844 C 14.988281 16.363281 14.714844 16.664062 14.535156 16.875 C 14.324219 17.089844 14.082031 17.328125 14.351562 17.785156 C 14.625 18.238281 15.5 19.6875 16.832031 20.863281 C 18.523438 22.375 19.972656 22.859375 20.425781 23.070312 C 20.878906 23.28125 21.121094 23.253906 21.394531 22.949219 C 21.667969 22.648438 22.511719 21.652344 22.8125 21.199219 C 23.117188 20.746094 23.417969 20.835938 23.8125 20.984375 C 24.234375 21.136719 26.410156 22.226562 26.863281 22.4375 C 27.316406 22.648438 27.617188 22.769531 27.710938 22.949219 C 27.832031 23.191406 27.832031 24.066406 27.46875 25.125 C 27.105469 26.152344 25.292969 27.179688 24.445312 27.242188 C 23.628906 27.300781 22.875 27.605469 19.097656 26.125 C 14.566406 24.339844 11.695312 19.6875 11.484375 19.382812 C 11.269531 19.082031 9.667969 16.96875 9.667969 14.761719 C 9.667969 12.554688 10.816406 11.496094 11.242188 11.042969 C 11.664062 10.589844 12.117188 10.5 12.417969 10.5 Z M 12.417969 10.5"/></g></svg>